# xmcd CD database file
#
# Track frame offsets:
#	150
#	18824
#	33076
#	47212
#	58875
#	78468
#	93039
#	109504
#	127076
#	141991
#	161961
#	174198
#	185903
#	201773
#	213758
#	229644
#	244921
#	260639
#	272619
#	294845
#
# Disc length: 4145 seconds
#
# Revision: 0
# Processed by: cddbd v1.5.2PL0 Copyright (c) Steve Scherf et al.
# Submitted via: CDex 1.97
#
DISCID=1a102f14
DTITLE=Various Artist - Now 100 Hits Country - Disc 1 of 5
DYEAR=2020
DGENRE=Country
TTITLE0=Dolly Parton and Kenny Rogers - Islands In The Stream
TTITLE1=John Denver - Take Me Home, Country Roads
TTITLE2=Glen Campbell - Rhinestone Cowboy
TTITLE3=Johnny Cash - Ring Of Fire
TTITLE4=The Mavericks - Dance The Night Away
TTITLE5=The Bellamy Brothers - Let Your Love Flow
TTITLE6=Shania Twain - That Don't Impress Me Much (Country Mix)
TTITLE7=Lady Antebellum - Need You Now
TTITLE8=Carrie Underwood - Before He Cheats
TTITLE9=Lonestar - Amazed (Captain Mix)
TTITLE10=Patsy Cline feat. The Jordanaires - Crazy
TTITLE11=Crystal Gayle - Don't It Make My Brown Eyes Blue
TTITLE12=Willie Nelson - Always On My Mind
TTITLE13=Tammy Wynette - Stand By Your Man
TTITLE14=Josh Turner - Your Man
TTITLE15=Billy Ray Cyrus - Achy Breaky Heart
TTITLE16=Kenny Rogers - The Gambler
TTITLE17=Bob Dylan - I'll Be Your Baby Tonight
TTITLE18=Darius Rucker - Wagon Wheel
TTITLE19=The Charlie Daniels Band - The Devil Went Down To Georgia
EXTD=YEAR: 2020
EXTT0=
EXTT1=
EXTT2=
EXTT3=
EXTT4=
EXTT5=
EXTT6=
EXTT7=
EXTT8=
EXTT9=
EXTT10=
EXTT11=
EXTT12=
EXTT13=
EXTT14=
EXTT15=
EXTT16=
EXTT17=
EXTT18=
EXTT19=
PLAYORDER=
